<svg fill="#181818" xmlns="http://www.w3.org/2000/svg" viewBox="0 0 534 213" role="img" aria-label="Knurl Mastering">
			<title>Knurl Mastering</title>
			<g fill-rule="evenodd">
			  <path d="M270.158 103.223V.919h22.607v87.022h23.492v15.282Zm-70.729 0V.919h28.165c6.905 0 12.883.758 17.935 2.274 5.052 1.515 8.988 4.23 11.809 8.146 2.82 3.916 4.231 9.452 4.231 16.609 0 4.21-.337 7.957-1.01 11.24-.674 3.284-1.916 6.126-3.726 8.526-1.81 2.4-4.4 4.4-7.768 6l14.02 49.509h-23.366l-11.24-45.847h-6.442v45.847Zm22.608-58.856h6.315c3.2 0 5.683-.569 7.452-1.705 1.768-1.137 3.01-2.779 3.726-4.926.715-2.147 1.073-4.736 1.073-7.767 0-4.379-.8-7.789-2.4-10.23-1.6-2.443-4.546-3.664-8.84-3.664h-7.326Zm-62.266 60.372c-7.831 0-13.957-1.284-18.377-3.853-4.42-2.568-7.515-6.315-9.283-11.24-1.769-4.926-2.653-10.967-2.653-18.124V.919h22.356v74.013c0 2.105.168 4.21.505 6.315.337 2.105 1.073 3.83 2.21 5.178 1.137 1.347 2.884 2.02 5.242 2.02 2.441 0 4.21-.673 5.304-2.02 1.095-1.347 1.79-3.073 2.084-5.178a45.49 45.49 0 0 0 .442-6.315V.919h22.482v70.603c0 7.157-.905 13.198-2.716 18.124-1.81 4.925-4.904 8.672-9.283 11.24-4.378 2.569-10.483 3.853-18.313 3.853Zm-94.095-1.516V.919H81.59l20.966 49.258V.919h18.693v102.304h-15.283L85 50.177v53.046Zm-65.297 0V.919h22.608v41.806L40.164.919h22.102L43.321 47.145l19.83 56.078H40.163L25.386 58.007l-2.4 4.042v41.174ZM501.288 212.796c-7.073 0-12.651-1.473-16.735-4.42-4.084-2.948-6.988-7.094-8.715-12.441-1.726-5.347-2.589-11.515-2.589-18.503v-34.354c0-7.241.926-13.514 2.779-18.819 1.852-5.305 5.03-9.41 9.536-12.314 4.504-2.905 10.63-4.358 18.376-4.358 7.578 0 13.536 1.263 17.872 3.79 4.336 2.525 7.43 6.02 9.283 10.482 1.853 4.463 2.779 9.683 2.779 15.662v6.567H511.77v-8.335c0-2.19-.147-4.21-.442-6.063-.295-1.852-.968-3.347-2.02-4.484-1.053-1.136-2.758-1.705-5.116-1.705-2.442 0-4.21.653-5.305 1.958-1.094 1.305-1.789 2.926-2.084 4.863a40.274 40.274 0 0 0-.442 6.062v47.363c0 2.273.232 4.4.695 6.378.463 1.979 1.305 3.579 2.526 4.8 1.22 1.22 2.968 1.83 5.241 1.83 2.358 0 4.168-.63 5.431-1.894 1.263-1.263 2.148-2.905 2.653-4.925.505-2.021.758-4.168.758-6.442v-11.998h-9.22v-13.262H534v53.046h-14.904l-1.263-8.462c-1.347 2.863-3.325 5.242-5.936 7.136-2.61 1.895-6.146 2.842-10.609 2.842Zm-91.82-1.516V108.977h15.913l20.966 49.257v-49.257h18.693V211.28h-15.283l-20.966-53.046v53.046Zm-32.207 0V108.977h22.607V211.28Zm-70.224 0V108.977h28.165c6.905 0 12.883.758 17.935 2.273 5.052 1.516 8.989 4.231 11.81 8.147 2.82 3.915 4.23 9.451 4.23 16.608 0 4.21-.336 7.957-1.01 11.24-.674 3.285-1.916 6.126-3.726 8.526-1.81 2.4-4.4 4.4-7.767 6l14.019 49.51h-23.366l-11.24-45.848h-6.442v45.847Zm22.608-58.856h6.315c3.2 0 5.684-.568 7.452-1.705 1.768-1.137 3.01-2.778 3.726-4.926.716-2.147 1.073-4.736 1.073-7.767 0-4.379-.8-7.789-2.4-10.23-1.6-2.442-4.546-3.663-8.84-3.663h-7.326Zm-73.38 58.856V108.977h45.973v15.408h-23.366v25.387h17.809v15.661h-17.809v30.565h23.619v15.282Zm-177.58 0L98.01 108.977h25.766l19.071 102.303h-20.84l-3.41-21.597h-15.03l-3.536 21.597Zm26.903-35.111h10.861l-5.43-39.911ZM0 211.28l1.768-102.303h24.25l11.24 59.487 12.126-59.487h23.365l1.768 102.303h-16.04l-1.894-68.076L44.71 211.28H30.439l-12.63-68.58-1.516 68.58Zm157.623-1.894c4.295 2.273 9.641 3.41 16.04 3.41 5.474 0 10.21-1.137 14.21-3.41 4-2.274 7.093-5.368 9.283-9.283 2.189-3.916 3.283-8.273 3.283-13.072 0-7.073-1.536-13.01-4.61-17.809-3.073-4.8-6.84-9.093-11.303-12.882l-8.463-7.452c-2.947-2.61-5.325-5.115-7.136-7.515-1.81-2.4-2.715-5.494-2.715-9.283 0-1.768.484-3.537 1.452-5.305.969-1.768 2.505-2.652 4.61-2.652 1.937 0 3.368.61 4.295 1.831.926 1.221 1.536 2.947 1.831 5.179.295 2.23.484 4.862.568 7.893l19.45-2.4c-.084-3.03-.441-6.21-1.073-9.535a30.022 30.022 0 0 0-3.536-9.473c-1.726-2.989-4.252-5.41-7.578-7.262-3.326-1.852-7.726-2.779-13.199-2.779-8.84 0-15.83 2.295-20.966 6.884-5.136 4.589-7.704 11.22-7.704 19.892 0 6.147 1.326 11.304 3.978 15.472 2.653 4.168 5.915 7.894 9.789 11.178l8.84 7.704c3.453 2.947 6.19 5.873 8.21 8.778 2.021 2.905 3.031 6.462 3.031 10.672 0 1.769-.357 3.453-1.073 5.052-.716 1.6-2.252 2.4-4.61 2.4-1.852 0-3.431-.59-4.736-1.768-1.305-1.179-2.316-3.115-3.032-5.81-.715-2.694-1.115-6.23-1.2-10.61l-19.323 2.906c.252 7.578 1.473 13.745 3.662 18.503 2.19 4.757 5.431 8.272 9.725 10.546Zm57.341-83.611v85.505h22.734v-85.505h15.283v-16.798h-53.426v16.798h15.409Z" />
			</g>
		  </svg>
